<svg width="18" height="25" viewBox="0 0 18 25" fill="none" xmlns="http://www.w3.org/2000/svg">
<path d="M14.3213 24H3.8318C3.32337 24 2.89587 23.6185 2.83824 23.1133L1.12701 8.11335C1.05932 7.52001 1.52338 7 2.12057 7H15.89C16.4834 7 16.9463 7.5138 16.8845 8.10401L15.3159 23.104C15.2627 23.6133 14.8334 24 14.3213 24Z" stroke="#DC2626" stroke-width="2"/>
<path d="M2 4H5.5H12.5H16" stroke="#DC2626" stroke-width="2" stroke-linecap="round"/>
<path d="M5 10L6 21" stroke="#DC2626" stroke-linecap="round"/>
<path d="M12 21L13 10M9 21V10" stroke="#DC2626" stroke-linecap="round"/>
<path d="M12 4L11.2279 1.68377C11.0918 1.27543 10.7097 1 10.2792 1H7.72076C7.29033 1 6.90819 1.27543 6.77208 1.68377L6 4" stroke="#DC2626" stroke-linecap="round"/>
</svg>
