<svg width="25" height="34" viewBox="0 0 25 34" fill="none" xmlns="http://www.w3.org/2000/svg">
<path d="M21.5 16.5C24.3606 7.28275 22.1481 2.78541 20.6433 1.14952C20.5536 1.05192 20.4255 1 20.2929 1H3.70713C3.26168 1 3.01728 1.55996 3.27612 1.92249C4.7709 4.01605 6.44434 8.47004 3.50002 16.5C-1.42179 29.9231 4.31503 32.4233 5.92639 32.9751C5.97723 32.9925 6.02741 33 6.08116 33H23.1877C23.3056 33 23.3331 32.8126 23.2218 32.7737C20.9878 31.9924 17.5105 29.355 21.5 16.5Z" stroke="#F59E0B" stroke-width="2" stroke-linecap="round"/>
<path d="M8 5H19" stroke="#F59E0B" stroke-linecap="round"/>
<path d="M9 9H20" stroke="#F59E0B" stroke-linecap="round"/>
<path d="M8 13H19" stroke="#F59E0B" stroke-linecap="round"/>
<path d="M7 17H18" stroke="#F59E0B" stroke-linecap="round"/>
<path d="M6 21H17" stroke="#F59E0B" stroke-linecap="round"/>
<path d="M5 25H16" stroke="#F59E0B" stroke-linecap="round"/>
<path d="M6 29H17" stroke="#F59E0B" stroke-linecap="round"/>
</svg>
