<svg width="34" height="36" viewBox="0 0 34 36" fill="none" xmlns="http://www.w3.org/2000/svg">
<path d="M17 35H25.7344C26.7431 35 27.5939 34.2489 27.719 33.2481L29.5 19M29.5 19C34.2108 17.5868 33.5956 11.2915 29.7453 10.5679C29.3094 10.4859 28.9164 10.2055 28.7746 9.7852C26.1291 1.94332 19.9137 1 17 1M29.5 19H17" stroke="#F59E0B" stroke-width="2" stroke-linecap="round"/>
<path d="M17 32.5V21.5" stroke="#F59E0B" stroke-linecap="round"/>
<path d="M19.5 32.5L20 21.5M23 21.5L22 32.5M24.5 32.5L26 21.5" stroke="#F59E0B" stroke-linecap="round"/>
<circle cx="22" cy="6" r="1" fill="#F59E0B"/>
<circle cx="25" cy="10" r="1" fill="#F59E0B"/>
<circle cx="17" cy="8" r="1" fill="#F59E0B"/>
<path d="M17 35H8.26556C7.25692 35 6.40612 34.2489 6.28101 33.2481L4.5 19M4.5 19C-0.210755 17.5868 0.404381 11.2915 4.25466 10.5679C4.69064 10.4859 5.0836 10.2055 5.22541 9.7852C7.87092 1.94332 14.0863 1 17 1M4.5 19H17" stroke="#F59E0B" stroke-width="2" stroke-linecap="round"/>
<path d="M17 32.5V21.5" stroke="#F59E0B" stroke-linecap="round"/>
<path d="M14.5 32.5L14 21.5M11 21.5L12 32.5M9.5 32.5L8 21.5" stroke="#F59E0B" stroke-linecap="round"/>
<circle cx="1" cy="1" r="1" transform="matrix(-1 0 0 1 13 5)" fill="#F59E0B"/>
<circle cx="1" cy="1" r="1" transform="matrix(-1 0 0 1 10 9)" fill="#F59E0B"/>
<circle cx="17" cy="4" r="1" fill="#F59E0B"/>
</svg>
