<svg width="33" height="33" viewBox="0 0 33 33" fill="none" xmlns="http://www.w3.org/2000/svg">
<path d="M28.3536 1.35355L31.6464 4.64645C31.8417 4.84171 31.8417 5.15829 31.6464 5.35355L9.85355 27.1464C9.65829 27.3417 9.34171 27.3417 9.14645 27.1464L5.85355 23.8536C5.65829 23.6583 5.65829 23.3417 5.85355 23.1464L27.6464 1.35355C27.8417 1.15829 28.1583 1.15829 28.3536 1.35355Z" stroke="#F59E0B" stroke-linecap="round"/>
<path d="M9.5 25L29.5 5" stroke="#F59E0B" stroke-linecap="round"/>
<path d="M7.47779 28.4778L4.52221 25.5222C4.27208 25.2721 3.84843 25.3537 3.70908 25.6788L1.4924 30.8511C1.3146 31.2659 1.73407 31.6854 2.14893 31.5076L7.3212 29.2909C7.64633 29.1516 7.72792 28.7279 7.47779 28.4778Z" fill="#F59E0B" stroke="#F59E0B" stroke-linecap="round"/>
<path d="M2 31.5L7 29" stroke="#F59E0B" stroke-linecap="round"/>
</svg>
